<?xml version="1.0" encoding="UTF-8"?>
<svg width="36px" height="36px" viewBox="0 0 36 36" version="1.1" xmlns="http://www.w3.org/2000/svg" xmlns:xlink="http://www.w3.org/1999/xlink">
    <title>Artboard</title>
    <g id="Artboard" stroke="none" stroke-width="1" fill="none" fill-rule="evenodd">
        <g id="Group" transform="translate(6.000000, 0.000000)" fill="#8047F8">
            <path d="M22.6752998,3.69477693 C22.3716517,3.24748303 21.9280238,3.2346399 21.4225053,3.21999549 C21.3652026,3.21833831 21.3071509,3.21666312 21.2484437,3.21432146 C21.2036876,3.21234005 21.1543436,3.2131056 21.1027525,3.21389816 C20.8976987,3.21706841 20.6579074,3.22077004 20.5371223,3.05507928 C20.397049,2.86298176 20.4103447,2.49173791 20.4212997,2.1852681 C20.424764,2.08842227 20.4279475,1.99798899 20.4260749,1.92178583 C20.4064122,1.20984785 20.3653078,0.453587563 20.0796369,0.200770682 C19.86419,0.0110866908 19.2196282,0.0373648471 18.625253,0.0615996311 C18.4325586,0.0694559147 18.2451076,0.0770974857 18.0792855,0.0770974857 L5.42686618,0.0770974857 C5.17212193,0.0770974857 4.90508382,0.0571446149 4.64270857,0.0375398415 C4.1314598,-0.000660902006 3.63790745,-0.0375397688 3.28741524,0.0770974857 C2.77876007,0.244281506 2.7443129,1.12280098 2.71188818,1.95005693 L2.71013727,1.99456656 C2.68290912,2.67749493 2.5069561,3.20446846 1.9238074,3.15139374 C1.24557554,3.09064556 0.570683524,3.07149795 0.264029764,3.6619486 C-0.098135527,4.3605481 -0.0234429444,5.09184084 0.110342401,6.40167776 C0.129453604,6.58878574 0.149769848,6.78769211 0.170190961,7 L22.8708968,7 C22.8839117,6.84481971 22.8976755,6.69162984 22.9113458,6.54092573 C23.017618,5.36246518 23.1102199,4.33569944 22.6752998,3.69477693 Z" id="Path" fill-rule="nonzero"></path>
            <path d="M2.00249544,9.19377239 C2.37063869,14.0151082 2.73476654,18.8418724 3.09890412,23.6688247 L3.09912774,23.6717411 C3.2968352,26.2925651 3.49455238,28.9134831 3.69291125,31.5334604 L4.44503575,31.5334604 C4.49628315,31.9435463 4.5549294,32.4498739 4.61675491,32.9836722 C4.74226293,34.0672623 4.8809158,35.2644044 4.99748883,36 L5.08067472,36 C5.84678019,35.7287732 11.1429582,33.5382619 11.1452916,24.8174225 C11.1443193,24.792586 11.1451943,24.7676553 11.1478194,24.7430069 L9.83936256,24.7430069 C9.77606895,24.7424424 9.71462262,24.7219334 9.66464886,24.6847726 C9.61464594,24.6476118 9.57880872,24.5956808 9.56263045,24.5370702 C9.43512931,24.2323517 9.33231365,23.9186017 9.25511684,23.5987366 C8.48537514,24.0194532 7.87411053,24.6618176 7.50844652,25.4342918 C7.16133307,24.6430961 7.11589973,23.7604566 7.38008007,22.940473 C7.64427013,22.1204895 8.20127335,21.4154692 8.95375758,20.9484662 C8.96345093,18.4036572 9.94815757,15.9505742 11.7213509,14.0535861 L11.7490601,14.0299725 C11.8005895,13.9868848 11.8666054,13.962895 11.9350519,13.9623305 C11.9746226,13.9627068 12.0137071,13.9708916 12.0497777,13.9864144 C12.0863344,14.0021255 12.119002,14.0249864 12.145739,14.0535861 C13.9397385,15.9532084 14.9191853,18.4298109 14.8887538,20.9896723 C15.6552773,21.4435985 16.2236559,22.1481484 16.4883029,22.9725536 C16.7529499,23.7969588 16.695976,24.685243 16.3279785,25.4724874 C15.964259,24.6987902 15.3524208,24.0558614 14.5812304,23.6370263 C14.5341734,23.9470132 14.4473513,24.2503206 14.3229031,24.5400807 C14.2799295,24.6636051 14.193788,24.7430069 14.1076465,24.7430069 L12.7122703,24.7430069 C12.7145064,24.7577771 12.716062,24.7726414 12.7169371,24.7875998 L12.7175204,24.7909866 L12.7175204,24.7982306 C12.7180065,24.8110252 12.7180065,24.8239139 12.7175204,24.8368026 C12.7366738,33.8079834 18.367569,35.844301 18.8422224,36 L19.0045885,36 C19.0460065,35.2933804 19.1809551,34.3183564 19.3125008,33.3677926 C19.4031147,32.7128218 19.492173,32.0693285 19.547883,31.5334604 L20.3086703,31.5334604 C20.5522194,28.2332994 20.8026716,24.9423581 21.0531237,21.6513227 L21.0533181,21.6495352 L21.0534154,21.6485944 C21.3737724,17.4389817 21.6941295,13.229275 22,9 L2.05121499,9 C1.99379378,9.0108566 1.99771196,9.10174532 2.00249544,9.19377239 Z" id="Shape"></path>
        </g>
    </g>
</svg>